<svg width="26" height="21" viewBox="0 0 26 21" fill="none" xmlns="http://www.w3.org/2000/svg">
    <path d="M14.2891 2.64844L16.3594 2.92188C16.7109 3 16.8672 3.42969 16.5938 3.70312L15.1094 5.10938L15.4609 7.17969C15.5391 7.53125 15.1484 7.80469 14.7969 7.64844L13 6.67188L11.1641 7.64844C10.8125 7.80469 10.4609 7.53125 10.5 7.17969L10.8516 5.14844L9.36719 3.70312C9.09375 3.42969 9.25 2.96094 9.60156 2.92188L11.6719 2.64844L12.5703 0.773438C12.7656 0.421875 13.2344 0.421875 13.3906 0.773438L14.2891 2.64844ZM10.5 10.5H15.5C16.1641 10.5 16.75 11.0859 16.75 11.75V19.25C16.75 19.9531 16.1641 20.5 15.5 20.5H10.5C9.79688 20.5 9.25 19.9531 9.25 19.25V11.75C9.25 11.0859 9.79688 10.5 10.5 10.5ZM1.75 13H6.75C7.41406 13 8 13.5859 8 14.25V19.25C8 19.9531 7.41406 20.5 6.75 20.5H1.75C1.04688 20.5 0.5 19.9531 0.5 19.25V14.25C0.5 13.5859 1.04688 13 1.75 13ZM18 16.75C18 16.0859 18.5469 15.5 19.25 15.5H24.25C24.9141 15.5 25.5 16.0859 25.5 16.75V19.25C25.5 19.9531 24.9141 20.5 24.25 20.5H19.25C18.5469 20.5 18 19.9531 18 19.25V16.75Z"
          fill="#FFE25F"/>
</svg>
