<svg width="33" height="34" viewBox="0 0 33 34" fill="none" xmlns="http://www.w3.org/2000/svg">
    <path d="M10.9375 18.0625C10.3125 17.5 10.3125 16.5625 10.9375 16L17.4375 9.4375C18 8.875 18.9375 8.875 19.5 9.4375C20.125 10.0625 20.125 11 19.5 11.5625L14.0625 17L19.5 22.4375C20.125 23.0625 20.125 24 19.5 24.5625C18.9375 25.1875 18 25.1875 17.4375 24.5625L10.9375 18.0625Z" fill="#ECEDFF"/>
    <path d="M32.5 17C32.5 22.75 29.4375 28 24.5 30.875C19.5 33.75 13.4375 33.75 8.5 30.875C3.5 28 0.5 22.75 0.5 17C0.5 11.3125 3.5 6.0625 8.5 3.1875C13.4375 0.3125 19.5 0.3125 24.5 3.1875C29.4375 6.0625 32.5 11.3125 32.5 17ZM17.4375 9.4375L10.9375 16C10.3125 16.5625 10.3125 17.5 10.9375 18.0625L17.4375 24.5625C18 25.1875 18.9375 25.1875 19.5 24.5625C20.125 24 20.125 23.0625 19.5 22.4375L14.0625 17L19.5 11.5625C20.125 11 20.125 10.0625 19.5 9.4375C18.9375 8.875 18 8.875 17.4375 9.4375Z" fill="#DA5056"/>
</svg>
