<svg width="33" height="34" viewBox="0 0 33 34" fill="none" xmlns="http://www.w3.org/2000/svg">
    <path d="M22.0625 15.9375C22.625 16.5625 22.625 17.5 22.0625 18.0625L15.5625 24.5625C14.9375 25.1875 14 25.1875 13.4375 24.5625C12.8125 24 12.8125 23.0625 13.4375 22.5L18.875 17.0625L13.4375 11.625C12.8125 11 12.8125 10.0625 13.4375 9.5C14 8.875 14.9375 8.875 15.5625 9.5L22.0625 15.9375Z" fill="#ECEDFF"/>
    <path d="M0.5 17C0.5 11.3125 3.5 6.0625 8.5 3.1875C13.4375 0.3125 19.5 0.3125 24.5 3.1875C29.4375 6.0625 32.5 11.3125 32.5 17C32.5 22.75 29.4375 28 24.5 30.875C19.5 33.75 13.4375 33.75 8.5 30.875C3.5 28 0.5 22.75 0.5 17ZM15.5625 24.5625L22.0625 18.0625C22.625 17.5 22.625 16.5625 22.0625 15.9375L15.5625 9.5C14.9375 8.875 14 8.875 13.4375 9.5C12.8125 10.0625 12.8125 11 13.4375 11.625L18.875 17.0625L13.4375 22.5C12.8125 23.0625 12.8125 24 13.4375 24.5625C14 25.1875 14.9375 25.1875 15.5625 24.5625Z" fill="#DA5056"/>
</svg>
