<svg width="84" height="28" viewBox="0 0 84 28" fill="none" xmlns="http://www.w3.org/2000/svg">
    <path d="M1.26 27C0.972 27 0.792 26.748 0.864 26.46C1.008 25.884 2.52 25.452 2.88 24.192L7.488 6.624C7.848 5.364 6.66 4.824 6.768 4.32C6.876 4.032 7.2 3.78 7.488 3.78H17.46C28.008 3.78 28.296 8.748 26.532 15.408C24.336 23.364 19.764 27 11.232 27H1.26ZM12.888 23.724C14.904 23.724 16.596 20.88 18.036 15.408C19.512 9.936 19.656 7.092 17.064 7.092H15.84L11.592 23.508C11.844 23.724 11.952 23.724 12.888 23.724ZM38.7323 0.684C39.9203 0.684 41.5763 1.8 40.9283 4.176C40.3523 6.372 37.5803 8.64 35.2403 8.64C33.9443 8.64 32.9003 6.552 33.2243 5.364C33.8363 3.132 36.3563 0.684 38.7323 0.684ZM36.9683 20.016C36.1043 22.608 36.8243 23.544 37.5803 23.544C38.6243 23.544 39.4883 22.572 39.9203 21.384C40.0643 20.952 40.4603 20.7 40.7843 20.7C41.1083 20.7 41.3243 20.952 41.1443 21.42C40.4603 23.256 38.4443 27.288 32.5043 27.288C28.8323 27.288 27.7523 24.3 29.4083 19.98L30.2003 17.64C30.7763 16.2 30.4523 15.66 29.9123 15.66C29.3723 15.66 28.5083 16.236 28.1123 17.028C27.8963 17.424 27.5723 17.64 27.3203 17.64C26.9243 17.64 26.6003 17.136 26.9603 16.308C27.7523 14.58 31.0283 10.188 34.7003 10.188C36.5363 10.188 39.7403 11.304 38.3003 15.732C38.1203 16.344 37.2203 19.116 36.9683 20.016ZM42.9573 24.156L47.6373 6.624C47.9973 5.364 46.7733 4.824 46.8813 4.32C46.9893 4.032 47.2773 3.78 47.6013 3.78H60.9573C66.1773 3.78 68.4093 5.292 67.3293 9.324C66.0333 14.184 62.2893 14.328 63.3693 15.012C65.4573 15.84 65.7813 18.18 65.1333 20.592C64.1253 24.336 60.6333 27 55.7013 27C53.6853 27 43.3893 27 41.3733 27C41.0853 27 40.9053 26.748 40.9773 26.424C41.1213 25.884 42.5973 25.416 42.9573 24.156ZM57.5733 7.092H56.0253L54.1893 13.968H55.1253C57.5013 13.968 58.5453 12.528 59.1213 10.332C59.6613 8.1 59.2293 7.092 57.5733 7.092ZM51.5973 23.508C51.7413 23.724 52.1013 23.688 53.0733 23.652C54.7653 23.472 56.0253 22.86 56.7813 20.016C57.5373 17.28 56.7093 16.596 54.4053 16.596H53.4693L51.5973 23.508ZM75.0682 23.544C75.9322 20.304 66.3922 20.88 67.9402 15.084C68.9482 11.412 73.4482 10.152 77.3362 10.152C81.0082 10.152 83.3842 11.52 82.8082 13.644C82.3402 15.336 79.3522 15.66 78.0922 15.444C77.4442 15.336 77.0482 15.084 77.1562 14.76C77.3002 14.256 78.1642 14.148 78.3082 13.608C78.4882 12.996 78.0562 12.636 77.0482 12.636C75.8602 12.636 75.0682 13.14 74.8162 13.968C73.9522 17.28 83.7802 15.48 82.1602 21.528C80.9362 26.1 75.2122 27.288 72.1522 27.288C67.8682 27.288 65.3482 25.704 65.9242 23.4C66.2842 21.996 67.7602 21.276 69.4522 21.24C71.3602 21.204 72.6202 21.96 72.4402 22.572C72.2962 23.04 71.5042 23.184 71.3602 23.76C71.2162 24.372 71.8282 24.768 72.8722 24.768C74.0602 24.768 74.8522 24.3 75.0682 23.544Z" fill="#FFE25F"/>
</svg>
