<svg width="96" height="96" viewBox="0 0 96 96" fill="none" xmlns="http://www.w3.org/2000/svg">
    <path d="M96 15C96 18.375 93.1875 21.5625 88.6875 24C83.25 27.1875 75.1875 29.25 65.8125 29.8125C65.0625 29.625 64.3125 29.25 63.75 28.875C56.25 25.875 46.5 24 36 24C34.3125 24 32.8125 24.1875 31.3125 24.1875L31.125 24C26.625 21.5625 24 18.375 24 15C24 6.75 40.125 0 60 0C79.875 0 96 6.75 96 15ZM30 30.375C31.875 30.1875 33.9375 30 36 30C47.625 30 57.9375 32.4375 64.5 36C69.1875 38.4375 72 41.625 72 45C72 45.75 71.8125 46.5 71.4375 47.25C70.6875 49.6875 68.25 51.9375 64.875 54H64.6875C58.125 57.75 47.625 60 36 60C24.75 60 14.8125 57.9375 8.0625 54.5625C7.6875 54.375 7.5 54.1875 7.125 54C2.625 51.5625 0 48.375 0 45C0 38.625 9.9375 33 24 30.9375C25.875 30.75 27.9375 30.375 30 30.375ZM78 45C78 41.0625 75.9375 37.6875 73.3125 35.0625C78.75 34.3125 83.625 33 87.75 31.3125C90.75 30 93.5625 28.3125 96 26.4375V33C96 36.75 92.8125 40.125 87.75 42.5625C84.9375 44.0625 81.5625 45.1875 77.8125 46.125C77.8125 45.75 78 45.375 78 45.1875V45ZM72 63C72 66.375 69.1875 69.5625 64.6875 72C64.3125 72.1875 64.125 72.375 63.75 72.5625C57 75.9375 47.0625 78 36 78C24.1875 78 13.6875 75.75 7.125 72C2.625 69.5625 0 66.375 0 63V56.4375C2.25 58.3125 5.0625 60 8.0625 61.3125C15.5625 64.3125 25.3125 66 36 66C46.5 66 56.25 64.3125 63.75 61.3125C65.0625 60.5625 66.5625 60 67.875 59.25C69 58.5 70.125 57.75 71.0625 57C71.4375 56.8125 71.625 56.625 72 56.4375V57V58.125V63ZM78 63V57V52.3125C81.5625 51.375 84.75 50.4375 87.75 49.3125C90.75 48 93.5625 46.3125 96 44.4375V51C96 53.0625 95.0625 54.9375 93.1875 56.8125C90 60 84.75 62.4375 77.8125 64.125C77.8125 63.75 78 63.375 78 63ZM36 84C46.5 84 56.25 82.3125 63.75 79.3125C66.75 78 69.5625 76.3125 72 74.4375V81C72 89.4375 55.875 96 36 96C16.125 96 0 89.4375 0 81V74.4375C2.25 76.3125 5.0625 78 8.0625 79.3125C15.5625 82.3125 25.3125 84 36 84Z"
          fill="url(#paint0_linear_466_480)"/>
    <defs>
        <linearGradient id="paint0_linear_466_480" x1="48" y1="0" x2="48" y2="96" gradientUnits="userSpaceOnUse">
            <stop stop-color="#DA5056"/>
            <stop offset="1" stop-color="#DA5056" stop-opacity="0"/>
        </linearGradient>
    </defs>
</svg>
