<svg width="96" height="96" viewBox="0 0 96 96" fill="none" xmlns="http://www.w3.org/2000/svg">
    <path d="M48 12C28.125 12 12 28.125 12 48C12 67.875 28.125 84 48 84C51.1875 84 54 86.8125 54 90C54 93.375 51.1875 96 48 96C21.375 96 0 74.625 0 48C0 21.5625 21.375 0 48 0C74.4375 0 96 21.5625 96 48V54C96 63.9375 87.9375 72 78 72C72.375 72 67.5 69.5625 64.125 65.8125C60 69.75 54.1875 72 48 72C34.6875 72 24 61.3125 24 48C24 34.875 34.6875 24 48 24C53.0625 24 57.9375 25.6875 61.875 28.6875C63 27.75 64.3125 27 66 27C69.1875 27 72 29.8125 72 33V48V54C72 57.375 74.625 60 78 60C81.1875 60 84 57.375 84 54V48C84 28.125 67.875 12 48 12ZM60 48C60 43.875 57.5625 39.9375 54 37.6875C50.25 35.625 45.5625 35.625 42 37.6875C38.25 39.9375 36 43.875 36 48C36 52.3125 38.25 56.25 42 58.5C45.5625 60.5625 50.25 60.5625 54 58.5C57.5625 56.25 60 52.3125 60 48Z"
          fill="url(#paint0_linear_382_495)"/>
    <defs>
        <linearGradient id="paint0_linear_382_495" x1="48" y1="0" x2="48" y2="96" gradientUnits="userSpaceOnUse">
            <stop stop-color="#DA5056"/>
            <stop offset="1" stop-color="#DA5056" stop-opacity="0"/>
        </linearGradient>
    </defs>
</svg>
